<svg width="316" height="67" viewBox="0 0 316 67" fill="none" xmlns="http://www.w3.org/2000/svg">
<g clip-path="url(#clip0_513_49)">
<path d="M43.6311 4.91376C34.0862 10.0042 24.5475 15.0807 15.0148 20.1432C14.9223 20.1929 14.8818 20.2413 14.8931 20.2884" stroke="#EFE0C8" stroke-width="2"/>
<path d="M14.8931 20.2885C14.8573 20.3076 14.8364 20.3369 14.8303 20.3761" stroke="#DBCBB1" stroke-width="2"/>
<path d="M14.8303 20.3761C14.8364 20.2976 14.7984 20.2365 14.7164 20.1929C11.6901 18.5842 8.66288 16.9768 5.6348 15.3707C5.4577 15.2765 5.2758 15.1687 5.08911 15.0475" stroke="#F1A458" stroke-width="2"/>
<path d="M50.2238 8.41687L21.4792 23.7915" stroke="#EFE0C8" stroke-width="2"/>
<path d="M21.4792 23.7916L14.8931 20.2885" stroke="#CADDE5" stroke-width="2"/>
<path d="M61.9213 15.0632L33.5 30.2037" stroke="#FEBF6C" stroke-width="2"/>
<path d="M33.5 30.2036L21.4622 23.7915" stroke="#F1A458" stroke-width="2"/>
<path d="M21.4622 23.7915C21.4683 23.7915 21.4739 23.7915 21.4791 23.7915" stroke="#DBCBB1" stroke-width="2"/>
<path d="M14.8303 20.3761C14.8233 21.8086 14.8237 23.2406 14.8316 24.6722C14.8355 25.3972 14.9206 25.952 15.5513 26.2896C17.1705 27.155 18.7905 28.0196 20.4114 28.8833C20.9231 29.1555 21.4727 28.8911 21.4635 28.2983C21.44 26.8048 21.4395 25.3025 21.4622 23.7915" stroke="#CCA175" stroke-width="2"/>
<path d="M33.5 30.2036L33.4987 67" stroke="#EF952F" stroke-width="2"/>
<path d="M45.051 49.9255C42.6052 51.1883 40.1437 52.4288 37.7084 53.7086C37.6666 53.7313 37.6456 53.7662 37.6456 53.8133L37.6443 57.1502C37.6443 57.1947 37.6648 57.2074 37.7058 57.1882C40.0168 56.0907 42.3238 54.9862 44.627 53.8748C45.844 53.2886 46.599 52.8005 46.828 51.5128C46.8978 51.1255 46.8887 50.8092 46.8005 50.5641C46.5454 49.8535 45.7236 49.5787 45.051 49.9255Z" stroke="#9E7545" stroke-width="2"/>
<path d="M43.2608 59.0595C43.4396 58.591 43.495 58.1727 43.427 57.8045C43.2713 56.9736 42.3304 56.6477 41.5884 57.0338C40.2807 57.7151 38.9756 58.3943 37.6731 59.0712C37.6649 59.0752 37.6579 59.0815 37.6531 59.0894C37.6482 59.0972 37.6456 59.1064 37.6456 59.1157L37.6443 62.5011C37.6443 62.5088 37.6462 62.5165 37.6499 62.5233C37.6536 62.5301 37.6589 62.5359 37.6653 62.5401C37.6717 62.5443 37.679 62.5468 37.6866 62.5473C37.6941 62.5478 37.7016 62.5463 37.7084 62.5429C39.1139 61.8948 40.5132 61.2282 41.9064 60.5434C42.5546 60.2241 43.0061 59.7295 43.2608 59.0595Z" stroke="#9E7545" stroke-width="2"/>
<path d="M33.3861 0H33.6623C34.2529 0.0697917 34.7331 0.202396 35.103 0.397812C37.9348 1.89572 40.7775 3.40104 43.6311 4.91377C34.0862 10.0042 24.5475 15.0807 15.0148 20.1432C14.9223 20.1929 14.8818 20.2413 14.8931 20.2884C14.8573 20.3076 14.8364 20.3369 14.8303 20.3761C14.8364 20.2976 14.7984 20.2365 14.7164 20.1929C11.6901 18.5842 8.66288 16.9768 5.6348 15.3707C5.4577 15.2765 5.2758 15.1688 5.08911 15.0475C5.34385 14.6296 5.62563 14.3387 5.93446 14.1747C14.5808 9.5824 23.228 4.99185 31.876 0.403047C32.2669 0.195417 32.7702 0.0610677 33.3861 0Z" fill="#FFCE94"/>
<path d="M43.6311 4.91376L50.2238 8.41686L21.4792 23.7915L14.8931 20.2884C14.8818 20.2413 14.9223 20.1929 15.0148 20.1432C24.5475 15.0807 34.0862 10.0042 43.6311 4.91376Z" fill="#DEF2FC"/>
<path d="M50.2238 8.41687C53.8111 10.3196 57.4241 12.241 61.0629 14.1812C61.3988 14.3609 61.6849 14.6549 61.9213 15.0632L33.5 30.2036L21.4622 23.7915C21.4684 23.7915 21.474 23.7915 21.4793 23.7915L50.2238 8.41687Z" fill="#FFCE94"/>
<path d="M5.08912 15.0475C5.27581 15.1688 5.4577 15.2766 5.6348 15.3708C8.66288 16.9768 11.6901 18.5842 14.7164 20.1929C14.7984 20.2366 14.8364 20.2976 14.8303 20.3761C14.8233 21.8086 14.8237 23.2407 14.8316 24.6723C14.8355 25.3972 14.9206 25.9521 15.5513 26.2897C17.1705 27.1551 18.7905 28.0196 20.4114 28.8833C20.9231 29.1555 21.4727 28.8912 21.4635 28.2984C21.44 26.8048 21.4396 25.3026 21.4622 23.7916L33.5 30.2037L33.4987 67H33.1074C32.6948 66.9032 32.4047 66.8125 32.2372 66.7278C23.836 62.4662 15.4357 58.2041 7.0363 53.9416C5.57155 53.1983 4.8383 52.0114 4.83656 50.3809C4.82434 38.9743 4.81867 27.5677 4.81955 16.1612C4.81955 15.7328 4.9094 15.3616 5.08912 15.0475Z" fill="#E2791B"/>
<path d="M61.9213 15.0632C62.0932 15.3825 62.1791 15.7376 62.1791 16.1284C62.18 27.5568 62.1804 38.9852 62.1804 50.4136C62.1804 51.5163 61.8341 52.4166 61.1414 53.1145C60.8343 53.4242 60.184 53.8308 59.1903 54.3341C51.043 58.4684 42.8948 62.6018 34.7458 66.7344C34.5757 66.8207 34.286 66.9093 33.8769 67H33.4987L33.5 30.2037L61.9213 15.0632ZM45.051 49.9255C42.6052 51.1883 40.1437 52.4288 37.7084 53.7086C37.6666 53.7313 37.6456 53.7662 37.6456 53.8133L37.6443 57.1502C37.6443 57.1947 37.6648 57.2074 37.7058 57.1882C40.0168 56.0907 42.3238 54.9863 44.627 53.8748C45.844 53.2886 46.599 52.8005 46.828 51.5128C46.8978 51.1255 46.8887 50.8092 46.8005 50.5641C46.5454 49.8535 45.7236 49.5787 45.051 49.9255ZM43.2608 59.0595C43.4396 58.591 43.495 58.1727 43.427 57.8045C43.2713 56.9736 42.3304 56.6477 41.5884 57.0338C40.2807 57.7151 38.9756 58.3943 37.6731 59.0712C37.6649 59.0752 37.6579 59.0815 37.6531 59.0894C37.6482 59.0972 37.6456 59.1064 37.6456 59.1157L37.6443 62.5011C37.6443 62.5088 37.6462 62.5165 37.6499 62.5233C37.6536 62.5301 37.6589 62.5359 37.6653 62.5401C37.6717 62.5443 37.679 62.5468 37.6866 62.5473C37.6941 62.5477 37.7016 62.5463 37.7084 62.5429C39.1139 61.8948 40.5132 61.2282 41.9064 60.5434C42.5546 60.2241 43.0061 59.7295 43.2608 59.0595Z" fill="#FCB043"/>
<path d="M14.8931 20.2885L21.4793 23.7916C21.474 23.7916 21.4684 23.7916 21.4623 23.7916C21.4396 25.3025 21.44 26.8048 21.4636 28.2984C21.4727 28.8911 20.9231 29.1555 20.4115 28.8833C18.7905 28.0196 17.1705 27.1551 15.5513 26.2897C14.9206 25.952 14.8355 25.3972 14.8316 24.6722C14.8238 23.2406 14.8233 21.8086 14.8303 20.3761C14.8364 20.3369 14.8573 20.3076 14.8931 20.2885Z" fill="#B6C8CE"/>
<path d="M37.7084 53.7086C40.1437 52.4288 42.6052 51.1883 45.051 49.9255C45.7236 49.5787 46.5454 49.8535 46.8005 50.5641C46.8887 50.8092 46.8978 51.1255 46.828 51.5128C46.599 52.8005 45.844 53.2886 44.627 53.8748C42.3238 54.9862 40.0168 56.0907 37.7058 57.1882C37.6648 57.2074 37.6443 57.1947 37.6443 57.1502L37.6456 53.8133C37.6456 53.7662 37.6666 53.7313 37.7084 53.7086Z" fill="#403A46"/>
<path d="M43.2608 59.0595C43.0061 59.7295 42.5546 60.2241 41.9064 60.5434C40.5132 61.2282 39.1139 61.8948 37.7084 62.5429C37.7016 62.5463 37.6941 62.5478 37.6866 62.5473C37.679 62.5468 37.6717 62.5443 37.6653 62.5401C37.6589 62.5359 37.6536 62.5301 37.6499 62.5233C37.6462 62.5165 37.6443 62.5088 37.6443 62.5011L37.6456 59.1157C37.6456 59.1064 37.6482 59.0972 37.6531 59.0894C37.6579 59.0815 37.6649 59.0752 37.6731 59.0712C38.9756 58.3943 40.2807 57.7151 41.5884 57.0338C42.3304 56.6477 43.2713 56.9736 43.427 57.8045C43.495 58.1727 43.4396 58.591 43.2608 59.0595Z" fill="#403A46"/>
</g>
<path d="M76.84 19.08H80.62V44.68H94.28V48H76.82L76.84 19.08ZM104.418 48.4C103.084 48.4 101.904 48.1667 100.878 47.7C99.8508 47.22 99.0442 46.5333 98.4575 45.64C97.8842 44.7467 97.5975 43.6667 97.5975 42.4C97.5975 40.1067 98.3975 38.4 99.9975 37.28C101.598 36.16 104.164 35.56 107.698 35.48L111.398 35.38V33.76C111.398 32.4933 111.018 31.4933 110.258 30.76C109.498 30.0133 108.318 29.64 106.718 29.64C105.531 29.6533 104.484 29.9333 103.578 30.48C102.684 31.0267 102.104 31.92 101.838 33.16H98.5775C98.6575 31.8133 99.0375 30.68 99.7175 29.76C100.398 28.8267 101.344 28.12 102.558 27.64C103.784 27.16 105.231 26.92 106.898 26.92C108.698 26.92 110.191 27.1733 111.378 27.68C112.578 28.1867 113.471 28.9333 114.058 29.92C114.658 30.9067 114.958 32.12 114.958 33.56V48H111.798L111.538 44.12C110.738 45.7333 109.718 46.8533 108.478 47.48C107.251 48.0933 105.898 48.4 104.418 48.4ZM105.538 45.74C106.231 45.74 106.918 45.6133 107.598 45.36C108.291 45.1067 108.924 44.7667 109.498 44.34C110.071 43.9 110.524 43.4133 110.858 42.88C111.204 42.3333 111.384 41.7733 111.398 41.2V37.66L108.318 37.72C106.744 37.7467 105.424 37.9067 104.358 38.2C103.304 38.4933 102.511 38.9533 101.978 39.58C101.458 40.2067 101.198 41.0267 101.198 42.04C101.198 43.2 101.598 44.1067 102.398 44.76C103.211 45.4133 104.258 45.74 105.538 45.74ZM127.763 48.4C126.683 48.3867 125.663 48.2333 124.703 47.94C123.756 47.6333 122.916 47.1867 122.183 46.6C121.45 46.0133 120.87 45.2867 120.443 44.42C120.03 43.54 119.823 42.52 119.823 41.36V27.32H123.523V40.98C123.523 42.3267 123.936 43.42 124.763 44.26C125.603 45.1 126.863 45.52 128.543 45.52C130.063 45.52 131.283 45.1267 132.203 44.34C133.136 43.54 133.603 42.3533 133.603 40.78V27.32H137.283V48H134.343L133.963 44.04C133.71 45.08 133.276 45.92 132.663 46.56C132.063 47.2 131.336 47.6733 130.483 47.98C129.643 48.2733 128.736 48.4133 127.763 48.4ZM142.488 48V27.32H146.068V30.32C146.401 29.7467 146.861 29.2067 147.448 28.7C148.048 28.1933 148.768 27.7867 149.608 27.48C150.461 27.1733 151.441 27.02 152.548 27.02C153.855 27.02 155.055 27.28 156.148 27.8C157.255 28.32 158.135 29.1333 158.788 30.24C159.455 31.3333 159.788 32.7467 159.788 34.48V48H156.088V34.84C156.088 33.2267 155.661 32.0333 154.808 31.26C153.968 30.4733 152.875 30.08 151.528 30.08C150.595 30.08 149.721 30.2333 148.908 30.54C148.095 30.8333 147.435 31.2867 146.928 31.9C146.421 32.5 146.168 33.26 146.168 34.18V48H142.488ZM173.014 26.92C174.494 26.92 175.827 27.2067 177.014 27.78C178.201 28.34 179.167 29.14 179.914 30.18C180.674 31.22 181.147 32.4467 181.334 33.86H178.054C177.934 33.14 177.654 32.48 177.214 31.88C176.787 31.28 176.221 30.8 175.514 30.44C174.807 30.08 173.981 29.9 173.034 29.9C171.261 29.9 169.821 30.54 168.714 31.82C167.607 33.1 167.054 35.06 167.054 37.7C167.054 40.0867 167.561 42 168.574 43.44C169.601 44.8667 171.107 45.58 173.094 45.58C174.041 45.58 174.861 45.4 175.554 45.04C176.261 44.6667 176.827 44.18 177.254 43.58C177.681 42.9667 177.954 42.3133 178.074 41.62H181.294C181.121 43.0067 180.654 44.2067 179.894 45.22C179.134 46.2333 178.161 47.02 176.974 47.58C175.801 48.1267 174.481 48.4 173.014 48.4C171.161 48.4 169.514 47.9933 168.074 47.18C166.647 46.3667 165.527 45.1667 164.714 43.58C163.901 41.9933 163.494 40.0467 163.494 37.74C163.494 35.58 163.861 33.6933 164.594 32.08C165.341 30.4533 166.421 29.1867 167.834 28.28C169.261 27.3733 170.987 26.92 173.014 26.92ZM185.537 48V18.28H189.137V30.36C189.483 29.7867 189.95 29.2533 190.537 28.76C191.123 28.2533 191.837 27.8467 192.677 27.54C193.517 27.22 194.49 27.06 195.597 27.06C196.943 27.06 198.163 27.3133 199.257 27.82C200.35 28.3133 201.217 29.02 201.857 29.94C202.497 30.86 202.817 31.9533 202.817 33.22V48H199.117V33.96C199.117 32.72 198.69 31.7667 197.837 31.1C196.997 30.42 195.897 30.08 194.537 30.08C193.617 30.08 192.75 30.2333 191.937 30.54C191.123 30.8333 190.463 31.2867 189.957 31.9C189.463 32.5 189.217 33.2667 189.217 34.2V48H185.537ZM207.963 48V19.08H218.443C222.23 19.08 225.037 19.7333 226.863 21.04C228.703 22.3333 229.623 24.2067 229.623 26.66C229.623 28.1 229.257 29.3533 228.523 30.42C227.79 31.4733 226.483 32.3933 224.603 33.18C225.817 33.4867 226.797 33.9 227.543 34.42C228.29 34.94 228.863 35.52 229.263 36.16C229.663 36.7867 229.937 37.4467 230.083 38.14C230.23 38.82 230.303 39.4933 230.303 40.16C230.303 42.8267 229.397 44.8 227.583 46.08C225.77 47.36 222.883 48 218.923 48H207.963ZM213.783 43.48H219.043C220.803 43.48 222.13 43.1267 223.023 42.42C223.93 41.7133 224.383 40.7667 224.383 39.58C224.383 38.7267 224.163 38.0133 223.723 37.44C223.283 36.8533 222.683 36.4133 221.923 36.12C221.177 35.8267 220.323 35.68 219.363 35.68H213.783V43.48ZM213.783 31.04H219.363C219.963 31.04 220.537 30.9733 221.083 30.84C221.643 30.6933 222.137 30.4733 222.563 30.18C223.003 29.8867 223.35 29.5133 223.603 29.06C223.857 28.5933 223.983 28.0467 223.983 27.42C223.983 26.1667 223.51 25.22 222.563 24.58C221.63 23.9267 220.43 23.6 218.963 23.6H213.783V31.04ZM234.206 48V27.32H239.826V32.22C240.16 31.1667 240.626 30.2467 241.226 29.46C241.84 28.66 242.58 28.04 243.446 27.6C244.313 27.1467 245.293 26.92 246.386 26.92C246.573 26.92 246.746 26.9333 246.906 26.96C247.08 26.9733 247.206 27 247.286 27.04V32.6C247.166 32.5467 247.02 32.5133 246.846 32.5C246.686 32.4867 246.54 32.4733 246.406 32.46C245.26 32.3667 244.28 32.4 243.466 32.56C242.653 32.72 241.993 32.9933 241.486 33.38C240.98 33.7667 240.613 34.24 240.386 34.8C240.16 35.36 240.046 35.9867 240.046 36.68V48H234.206ZM254.778 39C254.765 40.0533 254.931 40.9733 255.278 41.76C255.625 42.5333 256.125 43.1333 256.778 43.56C257.445 43.9733 258.245 44.18 259.178 44.18C260.178 44.18 261.051 43.9667 261.798 43.54C262.558 43.1133 263.085 42.4133 263.378 41.44H268.638C268.411 42.9067 267.825 44.16 266.878 45.2C265.945 46.24 264.811 47.0333 263.478 47.58C262.145 48.1267 260.758 48.4 259.318 48.4C257.278 48.4 255.478 47.9733 253.918 47.12C252.371 46.2533 251.165 45.0333 250.298 43.46C249.431 41.8867 248.998 40.0333 248.998 37.9C248.998 35.8333 249.391 33.9733 250.178 32.32C250.965 30.6533 252.105 29.34 253.598 28.38C255.105 27.4067 256.911 26.92 259.018 26.92C261.125 26.92 262.891 27.3667 264.318 28.26C265.758 29.14 266.838 30.3733 267.558 31.96C268.291 33.5333 268.658 35.3533 268.658 37.42V39H254.778ZM254.758 35.52H263.198C263.198 34.6933 263.045 33.9333 262.738 33.24C262.431 32.5467 261.965 32 261.338 31.6C260.725 31.2 259.951 31 259.018 31C258.111 31 257.338 31.22 256.698 31.66C256.071 32.0867 255.591 32.6467 255.258 33.34C254.925 34.0333 254.758 34.76 254.758 35.52ZM278.195 48.4C276.875 48.4 275.689 48.1533 274.635 47.66C273.582 47.1667 272.749 46.4533 272.135 45.52C271.522 44.5733 271.215 43.4267 271.215 42.08C271.215 39.8133 272.062 38.0933 273.755 36.92C275.449 35.7333 278.122 35.12 281.775 35.08L284.355 35.04V33.8C284.355 32.8533 284.075 32.1267 283.515 31.62C282.969 31.1 282.115 30.8467 280.955 30.86C280.102 30.8733 279.289 31.0733 278.515 31.46C277.755 31.8467 277.235 32.52 276.955 33.48H272.095C272.175 31.9867 272.609 30.76 273.395 29.8C274.182 28.8267 275.249 28.1067 276.595 27.64C277.955 27.16 279.495 26.92 281.215 26.92C283.335 26.92 285.035 27.1867 286.315 27.72C287.595 28.24 288.522 28.9933 289.095 29.98C289.669 30.9533 289.955 32.1133 289.955 33.46V48H285.075L284.595 44.44C283.889 45.9333 283.002 46.9667 281.935 47.54C280.882 48.1133 279.635 48.4 278.195 48.4ZM280.155 44.56C280.689 44.56 281.202 44.4667 281.695 44.28C282.202 44.08 282.649 43.82 283.035 43.5C283.435 43.1667 283.755 42.7933 283.995 42.38C284.235 41.9667 284.355 41.54 284.355 41.1V38.04L282.255 38.08C281.282 38.0933 280.375 38.2133 279.535 38.44C278.695 38.6533 278.015 39.0067 277.495 39.5C276.989 39.9933 276.735 40.66 276.735 41.5C276.735 42.46 277.069 43.2133 277.735 43.76C278.402 44.2933 279.209 44.56 280.155 44.56ZM314.705 48H308.885L303.305 39.08L300.565 42V48H294.725V18.28H300.565V35.9L308.165 27.32H314.445L306.925 35.56L314.705 48Z" fill="black"/>
<defs>
<clipPath id="clip0_513_49">
<rect width="67" height="67" fill="white"/>
</clipPath>
</defs>
</svg>
