<svg width="118" height="26" viewBox="0 0 118 26" fill="none" xmlns="http://www.w3.org/2000/svg">
<g clip-path="url(#clip0_104_464)">
<path d="M12.0002 8.94594C12.8413 8.94594 13.5232 8.26405 13.5232 7.42292C13.5232 6.58179 12.8413 5.8999 12.0002 5.8999C11.1591 5.8999 10.4772 6.58179 10.4772 7.42292C10.4772 8.26405 11.1591 8.94594 12.0002 8.94594Z" fill="#A0D6B4"/>
<path d="M20 1.00073H3.99994C1.77623 1.01831 -0.0133608 2.83298 -4.82718e-05 5.05673V17.2267C-0.0133608 19.4506 1.77609 21.2655 3.99994 21.2837H6.92292L10.6709 24.4837C11.4133 25.1622 12.5477 25.1721 13.3019 24.5067L17.1469 21.2827H19.9999C22.2238 21.2646 24.0132 19.4496 23.9999 17.2257V5.05673C24.0133 2.83298 22.2237 1.01831 20 1.00073ZM12 4.04273C16.6149 4.16475 16.614 11.0197 12 11.1427C7.38497 11.0197 7.38595 4.1677 12 4.04273ZM16.2489 18.2087C15.7138 18.3453 15.1693 18.0221 15.0328 17.487C15.0322 17.4846 15.0315 17.4822 15.0309 17.4797C14.5191 15.8055 12.7469 14.8632 11.0727 15.375C10.0649 15.6831 9.27605 16.4719 8.96794 17.4797C8.8282 18.0143 8.28155 18.3345 7.74694 18.1947C7.21233 18.055 6.89222 17.5083 7.03195 16.9737C7.8052 14.2297 10.6565 12.6321 13.4005 13.4053C15.13 13.8927 16.4816 15.2443 16.9689 16.9737C17.1082 17.5132 16.787 18.0641 16.2489 18.2087Z" fill="#A0D6B4"/>
</g>
<path d="M47.023 19.056C47.005 19.272 46.978 19.497 46.942 19.731C46.906 19.965 46.843 20.181 46.753 20.379C46.663 20.595 46.546 20.757 46.402 20.865C46.204 21.045 45.97 21.144 45.7 21.162C45.448 21.252 45.205 21.279 44.971 21.243C44.737 21.207 44.521 21.144 44.323 21.054C44.071 20.892 43.882 20.703 43.756 20.487C43.648 20.253 43.567 20.01 43.513 19.758C43.459 19.506 43.432 19.245 43.432 18.975C43.432 18.705 43.432 18.453 43.432 18.219V16.113L43.405 11.982C43.405 11.694 43.405 11.469 43.405 11.307C43.405 11.145 43.405 11.001 43.405 10.875C43.405 10.731 43.396 10.578 43.378 10.416C43.378 10.236 43.378 9.984 43.378 9.66C43.378 9.606 43.378 9.516 43.378 9.39C43.396 9.246 43.387 8.877 43.351 8.283C42.649 9.453 42.064 10.398 41.596 11.118C41.146 11.82 40.759 12.369 40.435 12.765C40.129 13.143 39.859 13.404 39.625 13.548C39.391 13.674 39.148 13.746 38.896 13.764C38.752 13.782 38.608 13.755 38.464 13.683C38.32 13.611 38.176 13.521 38.032 13.413C37.906 13.305 37.78 13.197 37.654 13.089C37.546 12.963 37.456 12.846 37.384 12.738C36.952 12.198 36.466 11.55 35.926 10.794C35.386 10.038 34.828 9.12 34.252 8.04C34.252 8.058 34.243 8.355 34.225 8.931C34.225 9.507 34.225 10.227 34.225 11.091C34.225 11.937 34.216 12.855 34.198 13.845C34.198 14.817 34.189 15.726 34.171 16.572C34.171 17.418 34.162 18.129 34.144 18.705C34.126 19.263 34.108 19.542 34.09 19.542C34.09 19.848 34.018 20.136 33.874 20.406C33.73 20.658 33.532 20.865 33.28 21.027C33.046 21.189 32.767 21.279 32.443 21.297C32.119 21.315 31.768 21.225 31.39 21.027C31.156 20.883 30.976 20.676 30.85 20.406C30.742 20.136 30.67 19.884 30.634 19.65C30.616 19.398 30.598 19.155 30.58 18.921C30.58 18.687 30.58 18.444 30.58 18.192L30.607 16.086L30.634 11.928V8.31C30.634 6.744 30.688 5.205 30.796 3.693C30.796 3.495 30.814 3.315 30.85 3.153C30.904 2.973 30.967 2.802 31.039 2.64C31.183 2.352 31.372 2.136 31.606 1.992C31.876 1.83 32.164 1.749 32.47 1.749C32.596 1.749 32.713 1.758 32.821 1.776C32.947 1.776 33.064 1.785 33.172 1.803C33.532 1.875 33.838 2.091 34.09 2.451C34.36 2.793 34.612 3.09 34.846 3.342C34.99 3.504 35.143 3.702 35.305 3.936C35.467 4.17 35.629 4.413 35.791 4.665C35.953 4.917 36.106 5.16 36.25 5.394C36.394 5.628 36.52 5.835 36.628 6.015C37.096 6.771 37.51 7.464 37.87 8.094C38.248 8.724 38.599 9.264 38.923 9.714C38.977 9.66 39.04 9.588 39.112 9.498C39.184 9.39 39.256 9.282 39.328 9.174C39.418 9.048 39.49 8.931 39.544 8.823C39.616 8.715 39.67 8.625 39.706 8.553C39.886 8.265 40.066 7.986 40.246 7.716C40.426 7.428 40.615 7.131 40.813 6.825C41.029 6.501 41.245 6.15 41.461 5.772C41.695 5.394 41.965 4.962 42.271 4.476C42.397 4.26 42.559 3.999 42.757 3.693C42.955 3.387 43.18 3.09 43.432 2.802C43.684 2.514 43.945 2.271 44.215 2.073C44.503 1.857 44.791 1.749 45.079 1.749C45.223 1.749 45.349 1.758 45.457 1.776C45.565 1.776 45.673 1.785 45.781 1.803C45.997 1.821 46.204 1.92 46.402 2.1C46.546 2.244 46.654 2.397 46.726 2.559C46.798 2.793 46.843 2.991 46.861 3.153C46.879 3.279 46.888 3.396 46.888 3.504C46.906 3.612 46.915 3.72 46.915 3.828C46.915 4.836 46.924 5.835 46.942 6.825C46.96 7.815 46.969 8.814 46.969 9.822C46.969 11.046 46.969 12.306 46.969 13.602C46.987 14.898 46.996 16.158 46.996 17.382C46.996 17.634 47.005 17.904 47.023 18.192C47.041 18.48 47.041 18.768 47.023 19.056ZM52.3546 8.796C52.9486 8.508 53.5696 8.301 54.2176 8.175C54.8656 8.049 55.5046 8.022 56.1346 8.094C56.7826 8.166 57.4036 8.337 57.9976 8.607C58.6096 8.877 59.1676 9.255 59.6716 9.741C60.0856 10.155 60.4456 10.659 60.7516 11.253C61.0576 11.829 61.2826 12.396 61.4266 12.954C61.7326 13.944 61.7776 14.943 61.5616 15.951C61.3456 16.959 60.9766 17.895 60.4546 18.759C60.2026 19.155 59.8876 19.515 59.5096 19.839C59.1496 20.145 58.7626 20.397 58.3486 20.595C57.8086 20.847 57.2236 21.018 56.5936 21.108C55.9636 21.216 55.3516 21.243 54.7576 21.189C53.6776 21.135 52.7236 20.865 51.8956 20.379C51.0856 19.893 50.4286 19.272 49.9246 18.516C49.4386 17.76 49.1146 16.905 48.9526 15.951C48.8086 14.979 48.8716 13.989 49.1416 12.981C49.4296 11.901 49.8436 11.028 50.3836 10.362C50.9416 9.678 51.5986 9.156 52.3546 8.796ZM53.1646 12.414C52.8946 12.666 52.6876 12.981 52.5436 13.359C52.3996 13.737 52.3096 14.133 52.2736 14.547C52.2376 14.943 52.2646 15.348 52.3546 15.762C52.4626 16.158 52.6246 16.518 52.8406 16.842C53.0206 17.112 53.3446 17.337 53.8126 17.517C54.2806 17.697 54.7666 17.805 55.2706 17.841C55.8466 17.877 56.3506 17.724 56.7826 17.382C57.2146 17.022 57.5386 16.581 57.7546 16.059C57.9886 15.537 58.0966 14.97 58.0786 14.358C58.0606 13.746 57.8986 13.188 57.5926 12.684C57.3766 12.324 57.0706 12.063 56.6746 11.901C56.2966 11.721 55.8916 11.631 55.4596 11.631C55.0456 11.613 54.6316 11.676 54.2176 11.82C53.8036 11.946 53.4526 12.144 53.1646 12.414ZM68.8712 14.79C69.2672 15.204 69.5552 15.51 69.7352 15.708C69.9332 15.888 70.0682 16.023 70.1402 16.113C70.2302 16.203 70.2932 16.257 70.3292 16.275C70.3652 16.293 70.4282 16.347 70.5182 16.437C70.6082 16.527 70.7522 16.671 70.9502 16.869C71.1482 17.049 71.4452 17.346 71.8412 17.76C72.1652 18.084 72.4262 18.462 72.6242 18.894C72.8402 19.308 72.8222 19.758 72.5702 20.244C72.4262 20.496 72.2642 20.676 72.0842 20.784C71.9042 20.874 71.7062 20.91 71.4902 20.892C71.2922 20.874 71.0762 20.811 70.8422 20.703C70.6262 20.595 70.4102 20.46 70.1942 20.298C69.7802 19.992 69.3842 19.641 69.0062 19.245C68.6282 18.831 68.3222 18.516 68.0882 18.3C67.9262 18.138 67.8272 18.03 67.7912 17.976C67.7552 17.94 67.7192 17.913 67.6832 17.895C67.6472 17.859 67.6112 17.823 67.5752 17.787C67.4492 17.661 67.3142 17.535 67.1702 17.409C67.0262 17.283 66.8822 17.148 66.7382 17.004V18.057C66.7382 18.255 66.7472 18.399 66.7652 18.489C66.7652 18.669 66.7562 18.804 66.7382 18.894C66.6842 19.092 66.6572 19.281 66.6572 19.461C66.6392 19.551 66.6212 19.641 66.6032 19.731C66.5852 19.803 66.5582 19.884 66.5222 19.974C66.5042 20.01 66.4862 20.037 66.4682 20.055C66.4682 20.073 66.4682 20.1 66.4682 20.136C66.4502 20.172 66.4322 20.199 66.4142 20.217C66.4142 20.235 66.4052 20.262 66.3872 20.298C66.2972 20.478 66.1532 20.649 65.9552 20.811C65.6132 21.009 65.1902 21.063 64.6862 20.973C64.4162 20.919 64.2092 20.82 64.0652 20.676C63.9032 20.568 63.7952 20.415 63.7412 20.217C63.7052 20.127 63.6692 20.037 63.6332 19.947C63.6152 19.839 63.5882 19.74 63.5522 19.65C63.5162 19.56 63.4982 19.479 63.4982 19.407C63.4982 19.317 63.4982 19.245 63.4982 19.191V3.828C63.4982 3.72 63.4982 3.612 63.4982 3.504C63.4982 3.396 63.5072 3.288 63.5252 3.18C63.5432 3.072 63.5612 2.973 63.5792 2.883C63.6152 2.775 63.6512 2.676 63.6872 2.586C63.7592 2.406 63.8492 2.262 63.9572 2.154C64.0472 2.064 64.1372 2.001 64.2272 1.965C64.3352 1.911 64.4342 1.866 64.5242 1.83C64.6142 1.812 64.7132 1.803 64.8212 1.803C64.9472 1.785 65.0642 1.776 65.1722 1.776C65.4242 1.776 65.6762 1.848 65.9282 1.992C66.1622 2.154 66.3332 2.361 66.4412 2.613C66.5852 2.955 66.6572 3.288 66.6572 3.612C66.6752 3.792 66.6932 4.071 66.7112 4.449C66.7292 4.809 66.7382 5.079 66.7382 5.259V5.367C66.7562 5.961 66.7652 6.528 66.7652 7.068C66.7652 7.608 66.7652 8.193 66.7652 8.823C66.7472 9.453 66.7382 10.056 66.7382 10.632C66.7382 11.19 66.7382 11.748 66.7382 12.306V12.603C66.8822 12.459 67.0262 12.324 67.1702 12.198C67.3142 12.072 67.4492 11.937 67.5752 11.793C67.6472 11.739 67.7192 11.676 67.7912 11.604L68.0882 11.307C68.3222 11.073 68.6282 10.758 69.0062 10.362C69.3842 9.948 69.7802 9.588 70.1942 9.282C70.6442 8.958 71.0762 8.76 71.4902 8.688C71.9222 8.616 72.2822 8.832 72.5702 9.336C72.8222 9.822 72.8402 10.281 72.6242 10.713C72.4262 11.127 72.1652 11.514 71.8412 11.874C71.4452 12.288 71.1482 12.594 70.9502 12.792C70.7522 12.972 70.6082 13.107 70.5182 13.197C70.4282 13.269 70.3652 13.314 70.3292 13.332C70.2932 13.35 70.2302 13.404 70.1402 13.494C70.0682 13.566 69.9332 13.701 69.7352 13.899C69.5552 14.079 69.2672 14.376 68.8712 14.79ZM85.6885 14.574C85.6525 15.168 85.6165 15.771 85.5805 16.383C85.5445 16.977 85.4455 17.553 85.2835 18.111C85.1395 18.669 84.9055 19.173 84.5815 19.623C84.2755 20.073 83.8345 20.433 83.2585 20.703C82.7545 20.955 82.2145 21.126 81.6385 21.216C81.0625 21.324 80.4865 21.369 79.9105 21.351C79.3345 21.333 78.7765 21.243 78.2365 21.081C77.6965 20.937 77.2105 20.73 76.7785 20.46C76.3465 20.19 75.9955 19.839 75.7255 19.407C75.4555 18.975 75.2395 18.507 75.0775 18.003C74.9335 17.499 74.8345 16.977 74.7805 16.437C74.7265 15.897 74.6905 15.393 74.6725 14.925C74.6005 13.683 74.6005 12.459 74.6725 11.253C74.6725 11.019 74.6725 10.758 74.6725 10.47C74.6725 10.164 74.6905 9.867 74.7265 9.579C74.7805 9.291 74.8615 9.03 74.9695 8.796C75.0775 8.544 75.2575 8.355 75.5095 8.229C76.0495 7.941 76.5445 7.923 76.9945 8.175C77.4625 8.427 77.7415 8.949 77.8315 9.741C77.8855 10.155 77.9035 10.614 77.8855 11.118C77.8855 11.622 77.9035 12.081 77.9395 12.495C77.9575 13.107 77.9755 13.773 77.9935 14.493C78.0115 15.195 78.1105 15.825 78.2905 16.383C78.4885 16.941 78.8035 17.364 79.2355 17.652C79.6855 17.922 80.3515 17.931 81.2335 17.679C81.6475 17.553 81.9175 17.238 82.0435 16.734C82.1875 16.23 82.2595 15.483 82.2595 14.493C82.2595 14.061 82.2505 13.584 82.2325 13.062C82.2145 12.54 82.2055 12.027 82.2055 11.523C82.2055 11.001 82.2145 10.524 82.2325 10.092C82.2685 9.642 82.3225 9.3 82.3945 9.066C82.4845 8.742 82.6735 8.499 82.9615 8.337C83.2495 8.175 83.5555 8.094 83.8795 8.094C84.2035 8.076 84.5095 8.139 84.7975 8.283C85.0855 8.427 85.2835 8.661 85.3915 8.985C85.4995 9.273 85.5715 9.642 85.6075 10.092C85.6615 10.524 85.6975 11.001 85.7155 11.523C85.7335 12.027 85.7335 12.549 85.7155 13.089C85.7155 13.611 85.7065 14.106 85.6885 14.574ZM88.164 11.361C88.164 10.947 88.155 10.506 88.137 10.038C88.137 9.57 88.218 9.147 88.38 8.769C88.524 8.427 88.758 8.184 89.082 8.04C89.424 7.878 89.757 7.842 90.081 7.932C90.405 7.986 90.657 8.085 90.837 8.229C91.017 8.373 91.143 8.544 91.215 8.742C91.305 8.922 91.359 9.138 91.377 9.39C91.395 9.624 91.413 9.858 91.431 10.092C91.611 9.768 91.836 9.507 92.106 9.309C92.376 9.111 92.655 8.949 92.943 8.823C93.231 8.697 93.501 8.607 93.753 8.553C94.023 8.499 94.23 8.472 94.374 8.472C95.058 8.472 95.733 8.625 96.399 8.931C97.083 9.219 97.65 9.633 98.1 10.173C98.352 10.497 98.541 10.839 98.667 11.199C98.811 11.541 98.91 11.901 98.964 12.279C99.036 12.657 99.081 13.044 99.099 13.44C99.117 13.818 99.135 14.205 99.153 14.601C99.243 15.753 99.243 16.896 99.153 18.03C99.135 18.264 99.126 18.534 99.126 18.84C99.126 19.146 99.099 19.452 99.045 19.758C99.009 20.046 98.928 20.307 98.802 20.541C98.694 20.757 98.505 20.892 98.235 20.946C97.857 21.036 97.542 21.054 97.29 21C97.056 20.964 96.867 20.883 96.723 20.757C96.579 20.631 96.471 20.469 96.399 20.271C96.327 20.073 96.264 19.848 96.21 19.596C96.174 19.398 96.138 19.173 96.102 18.921C96.084 18.651 96.066 18.381 96.048 18.111C96.048 17.841 96.039 17.58 96.021 17.328C96.021 17.058 96.021 16.815 96.021 16.599C96.021 16.257 96.012 15.879 95.994 15.465C95.976 15.051 95.976 14.664 95.994 14.304C95.994 13.458 95.769 12.819 95.319 12.387C94.887 11.937 94.293 11.748 93.537 11.82C92.961 11.892 92.457 12.126 92.025 12.522C91.593 12.9 91.386 13.395 91.404 14.007C91.404 14.241 91.404 14.457 91.404 14.655C91.404 14.853 91.395 15.051 91.377 15.249C91.377 15.447 91.377 15.663 91.377 15.897C91.377 16.131 91.377 16.392 91.377 16.68C91.377 17.274 91.377 17.904 91.377 18.57C91.377 19.218 91.296 19.749 91.134 20.163C90.99 20.595 90.747 20.892 90.405 21.054C90.063 21.216 89.658 21.171 89.19 20.919C88.992 20.811 88.83 20.667 88.704 20.487C88.596 20.289 88.506 20.082 88.434 19.866C88.38 19.65 88.344 19.434 88.326 19.218C88.308 18.984 88.29 18.768 88.272 18.57C88.218 17.976 88.182 17.427 88.164 16.923C88.164 16.401 88.164 15.843 88.164 15.249V11.361ZM104.209 9.633C104.749 9.363 105.316 9.174 105.91 9.066C106.504 8.94 107.089 8.913 107.665 8.985C108.259 9.039 108.826 9.192 109.366 9.444C109.906 9.678 110.41 10.02 110.878 10.47C111.346 10.938 111.706 11.451 111.958 12.009C112.21 12.567 112.39 13.188 112.498 13.872C112.57 14.34 112.687 14.772 112.849 15.168C113.011 15.564 113.182 15.96 113.362 16.356C113.56 16.752 113.74 17.148 113.902 17.544C114.082 17.94 114.226 18.354 114.334 18.786C114.424 19.2 114.388 19.605 114.226 20.001C114.082 20.379 113.776 20.613 113.308 20.703C113.038 20.757 112.777 20.739 112.525 20.649C112.291 20.541 112.075 20.397 111.877 20.217C111.679 20.019 111.499 19.812 111.337 19.596C111.193 19.362 111.058 19.146 110.932 18.948C110.518 19.488 110.068 19.911 109.582 20.217C109.096 20.505 108.511 20.694 107.827 20.784C107.251 20.856 106.702 20.874 106.18 20.838C105.658 20.802 105.1 20.703 104.506 20.541C103.732 20.343 103.093 20.001 102.589 19.515C102.103 19.011 101.725 18.435 101.455 17.787C101.203 17.121 101.068 16.41 101.05 15.654C101.032 14.898 101.122 14.151 101.32 13.413C101.572 12.441 101.95 11.649 102.454 11.037C102.958 10.425 103.543 9.957 104.209 9.633ZM104.884 12.792C104.632 13.044 104.434 13.341 104.29 13.683C104.146 14.025 104.056 14.385 104.02 14.763C104.002 15.141 104.038 15.519 104.128 15.897C104.218 16.275 104.362 16.608 104.56 16.896C104.74 17.148 105.046 17.364 105.478 17.544C105.91 17.706 106.36 17.805 106.828 17.841C107.368 17.877 107.836 17.733 108.232 17.409C108.646 17.085 108.952 16.68 109.15 16.194C109.366 15.69 109.465 15.159 109.447 14.601C109.429 14.025 109.276 13.503 108.988 13.035C108.772 12.693 108.484 12.441 108.124 12.279C107.782 12.117 107.413 12.036 107.017 12.036C106.621 12.018 106.225 12.081 105.829 12.225C105.451 12.351 105.136 12.54 104.884 12.792Z" fill="#303232"/>
<defs>
<clipPath id="clip0_104_464">
<rect width="24" height="24" fill="white" transform="translate(0 1)"/>
</clipPath>
</defs>
</svg>
